<svg width="161" height="64" viewBox="0 0 161 64" fill="none" xmlns="http://www.w3.org/2000/svg">
<rect x="0.5" width="160" height="64" fill="#121212"/>
<path d="M34.508 44H50.38V40.48H38.668V21.6H34.508V44ZM63.722 44.32C70.666 44.32 75.786 39.456 75.786 32.8C75.786 26.144 70.666 21.28 63.722 21.28C56.778 21.28 51.658 26.176 51.658 32.8C51.658 39.424 56.778 44.32 63.722 44.32ZM63.722 40.672C59.21 40.672 55.85 37.376 55.85 32.8C55.85 28.224 59.21 24.928 63.722 24.928C68.234 24.928 71.594 28.224 71.594 32.8C71.594 37.376 68.234 40.672 63.722 40.672ZM95.4915 39.52C94.0515 40.352 92.4835 40.672 90.8835 40.672C86.1475 40.672 82.7875 37.344 82.7875 32.8C82.7875 28.16 86.1475 24.928 90.9155 24.928C93.3155 24.928 95.3315 25.728 97.0915 27.488L99.7155 24.928C97.6035 22.528 94.4675 21.28 90.7235 21.28C83.7155 21.28 78.5955 26.112 78.5955 32.8C78.5955 39.488 83.7155 44.32 90.6595 44.32C93.8275 44.32 97.0915 43.36 99.4275 41.472V32.544H95.4915V39.52ZM115.378 44.32C122.322 44.32 127.442 39.456 127.442 32.8C127.442 26.144 122.322 21.28 115.378 21.28C108.434 21.28 103.314 26.176 103.314 32.8C103.314 39.424 108.434 44.32 115.378 44.32ZM115.378 40.672C110.866 40.672 107.506 37.376 107.506 32.8C107.506 28.224 110.866 24.928 115.378 24.928C119.89 24.928 123.25 28.224 123.25 32.8C123.25 37.376 119.89 40.672 115.378 40.672Z" fill="#DCBA40"/>
</svg>
