<svg width="291" height="88" viewBox="0 0 291 88" fill="none" xmlns="http://www.w3.org/2000/svg">
<rect width="120" height="88" fill="#E3BF43"/>
<path d="M147.984 62H172.608V55.664H155.76V28.4H147.984V62ZM192.662 62.576C203.222 62.576 211.046 55.232 211.046 45.2C211.046 35.168 203.222 27.824 192.662 27.824C182.054 27.824 174.278 35.216 174.278 45.2C174.278 55.184 182.054 62.576 192.662 62.576ZM192.662 55.952C186.662 55.952 182.15 51.584 182.15 45.2C182.15 38.816 186.662 34.448 192.662 34.448C198.662 34.448 203.174 38.816 203.174 45.2C203.174 51.584 198.662 55.952 192.662 55.952ZM239.594 54.512C237.626 55.568 235.658 55.952 233.546 55.952C227.114 55.952 222.65 51.488 222.65 45.2C222.65 38.816 227.114 34.448 233.642 34.448C237.05 34.448 239.882 35.648 242.33 38.24L247.322 33.632C244.058 29.84 239.162 27.824 233.258 27.824C222.554 27.824 214.778 35.072 214.778 45.2C214.778 55.328 222.554 62.576 233.114 62.576C237.914 62.576 243.002 61.088 246.698 58.304V44.672H239.594V54.512ZM270.194 62.576C280.754 62.576 288.578 55.232 288.578 45.2C288.578 35.168 280.754 27.824 270.194 27.824C259.586 27.824 251.81 35.216 251.81 45.2C251.81 55.184 259.586 62.576 270.194 62.576ZM270.194 55.952C264.194 55.952 259.682 51.584 259.682 45.2C259.682 38.816 264.194 34.448 270.194 34.448C276.194 34.448 280.706 38.816 280.706 45.2C280.706 51.584 276.194 55.952 270.194 55.952Z" fill="white"/>
</svg>
